<svg width="current" height="current" viewBox="0 0 24 24" fill="none" xmlns="http://www.w3.org/2000/svg">
  <path d="M12.0008 0.00119615C12.2395 0.00119615 12.4683 0.0957197 12.637 0.263972C12.8058 0.432225 12.9006 0.660425 12.9006 0.89837V1.8398C15.1201 2.06223 17.1776 3.0988 18.6739 4.74841C20.1702 6.39802 20.9986 8.54303 20.9984 10.7673V14.4923L21.8286 16.7006C21.9815 17.1078 22.0332 17.5458 21.9793 17.9772C21.9254 18.4087 21.7674 18.8207 21.519 19.178C21.2706 19.5353 20.939 19.8272 20.5527 20.0289C20.1664 20.2306 19.7369 20.3359 19.3009 20.3359H15.673C15.673 21.3077 15.2859 22.2397 14.5968 22.9268C13.9076 23.614 12.973 24 11.9984 24C11.0239 24 10.0892 23.614 9.40008 22.9268C8.71095 22.2397 8.32381 21.3077 8.32381 20.3359H4.70078C4.2645 20.3362 3.83467 20.231 3.44809 20.0293C3.06151 19.8277 2.72971 19.5356 2.48111 19.1781C2.23251 18.8206 2.07451 18.4084 2.02065 17.9767C1.96679 17.545 2.01867 17.1067 2.17185 16.6994L3.00323 14.4912V10.7661C3.00305 8.54184 3.83149 6.39682 5.32779 4.74721C6.8241 3.09761 8.88159 2.06103 11.1011 1.83861V0.897174C11.1011 0.659229 11.1959 0.431029 11.3646 0.262776C11.5333 0.0945233 11.7622 0.00119615 12.0008 0.00119615ZM10.1233 20.3359C10.1357 20.8235 10.3386 21.2869 10.6888 21.6274C11.039 21.9678 11.5087 22.1584 11.9978 22.1584C12.4869 22.1584 12.9567 21.9678 13.3068 21.6274C13.657 21.2869 13.86 20.8235 13.8723 20.3359H10.1233ZM4.80275 10.7661V14.4935C4.80275 14.7065 4.76316 14.9194 4.68878 15.1192L3.8574 17.3298C3.80645 17.4655 3.78921 17.6115 3.80716 17.7553C3.82511 17.899 3.87772 18.0364 3.96049 18.1554C4.04326 18.2745 4.15372 18.3719 4.28243 18.4391C4.41114 18.5064 4.55427 18.5415 4.69958 18.5416H19.3009C19.4462 18.5415 19.5893 18.5064 19.718 18.4391C19.8467 18.3719 19.9572 18.2745 20.04 18.1554C20.1227 18.0364 20.1753 17.899 20.1933 17.7553C20.2112 17.6115 20.194 17.4655 20.143 17.3298L19.3117 15.1192C19.237 14.919 19.1988 14.7071 19.1989 14.4935V10.7661C19.1989 9.82354 19.0127 8.89022 18.651 8.01942C18.2892 7.14862 17.759 6.35739 17.0906 5.6909C16.4222 5.02442 15.6287 4.49574 14.7554 4.13504C13.8821 3.77434 12.9461 3.5887 12.0008 3.5887C11.0556 3.5887 10.1196 3.77434 9.24624 4.13504C8.37293 4.49574 7.57942 5.02442 6.91102 5.6909C6.24261 6.35739 5.71241 7.14862 5.35067 8.01942C4.98893 8.89022 4.80275 9.82354 4.80275 10.7661Z" fill="current" />
</svg>