<svg width="current" height="current" viewBox="0 0 16 16" fill="none" xmlns="http://www.w3.org/2000/svg">
<path d="M11.1752 10.7789L12.0641 9.77904C12.203 9.62281 12.4447 9.73217 12.4447 9.95714V14.5002C12.4447 15.3282 11.8475 16 11.1114 16H1.33336C0.597235 16 0 15.3282 0 14.5002V3.50183C0 2.67383 0.597235 2.00205 1.33336 2.00205H8.93075C9.12797 2.00205 9.22798 2.27076 9.08909 2.43011L8.20018 3.42997C8.15851 3.47683 8.10295 3.50183 8.04184 3.50183H1.33336V14.5002H11.1114V10.9539C11.1114 10.8882 11.1336 10.8258 11.1752 10.7789ZM15.5253 4.47356L8.23073 12.6786L5.71957 12.9911C4.99177 13.0817 4.37232 12.3912 4.45287 11.5663L4.73066 8.74169L12.0253 0.53664C12.6614 -0.17888 13.6892 -0.17888 14.3225 0.53664L15.5226 1.88644C16.1587 2.60196 16.1587 3.76117 15.5253 4.47356ZM12.7808 5.43905L11.1669 3.62369L6.00569 9.43221L5.8029 11.4725L7.61683 11.2444L12.7808 5.43905ZM14.5809 2.94879L13.3808 1.59898C13.267 1.47088 13.0808 1.47088 12.9697 1.59898L12.1114 2.56447L13.7253 4.37983L14.5836 3.41434C14.6948 3.28311 14.6948 3.07689 14.5809 2.94879Z" fill="current"/>
</svg>
