<svg width="current" height="current" viewBox="0 0 24 24" fill="none" xmlns="http://www.w3.org/2000/svg">
<path fill-rule="evenodd" clip-rule="evenodd" d="M8.37202 7.21147C7.56499 6.89632 6.67651 6.85636 5.84444 7.09779C5.01238 7.33923 4.28328 7.84855 3.77028 8.54673C3.25728 9.2449 2.98907 10.0929 3.00728 10.9591C3.02549 11.8253 3.3291 12.6612 3.87099 13.3372C4.41288 14.0132 5.16274 14.4915 6.00422 14.6977C6.84569 14.904 7.73171 14.8267 8.52479 14.4779C9.31786 14.1291 9.97363 13.5283 10.3903 12.7687C10.807 12.0091 10.9614 11.1332 10.8294 10.277C10.8181 10.204 10.8214 10.1295 10.839 10.0578C10.8565 9.98614 10.888 9.91859 10.9317 9.85907C10.9753 9.79954 11.0303 9.7492 11.0934 9.71091C11.1565 9.67263 11.2266 9.64715 11.2995 9.63593C11.3725 9.62471 11.4469 9.62797 11.5186 9.64553C11.5904 9.66308 11.6579 9.69459 11.7174 9.73825C11.7769 9.78191 11.8273 9.83686 11.8656 9.89998C11.9039 9.96309 11.9293 10.0331 11.9406 10.1061C12.1101 11.207 11.9115 12.333 11.3756 13.3095C10.8398 14.286 9.99658 15.0584 8.97692 15.5067C7.95726 15.955 6.81813 16.0542 5.73631 15.789C4.65448 15.5237 3.69045 14.9088 2.99381 14.0397C2.29717 13.1706 1.90687 12.0958 1.88347 10.9822C1.86008 9.86858 2.2049 8.77837 2.86442 7.88075C3.52395 6.98312 4.4613 6.32828 5.53103 6.01783C6.60076 5.70738 7.74305 5.75869 8.78064 6.16378C8.85034 6.18992 8.91415 6.22965 8.96837 6.28065C9.02259 6.33165 9.06614 6.39291 9.09649 6.46088C9.12684 6.52885 9.14339 6.60217 9.14517 6.67659C9.14696 6.75101 9.13394 6.82503 9.10688 6.89438C9.07982 6.96372 9.03925 7.027 8.98754 7.08054C8.93582 7.13408 8.87399 7.17682 8.80562 7.20626C8.73726 7.23571 8.66372 7.25129 8.58929 7.25208C8.51485 7.25288 8.441 7.23945 8.37202 7.21147Z" fill="current" stroke="current" stroke-width="0.5"/>
<path fill-rule="evenodd" clip-rule="evenodd" d="M6.37897 20.4314V15.9349C6.37897 15.7858 6.43818 15.6428 6.54359 15.5374C6.649 15.432 6.79196 15.3728 6.94103 15.3728C7.0901 15.3728 7.23306 15.432 7.33847 15.5374C7.44388 15.6428 7.50309 15.7858 7.50309 15.9349V20.4314C7.50309 20.5804 7.44388 20.7234 7.33847 20.8288C7.23306 20.9342 7.0901 20.9934 6.94103 20.9934C6.79196 20.9934 6.649 20.9342 6.54359 20.8288C6.43818 20.7234 6.37897 20.5804 6.37897 20.4314Z" fill="current" stroke="current" stroke-width="0.5"/>
<path fill-rule="evenodd" clip-rule="evenodd" d="M4.69278 17.621C4.69278 17.4719 4.752 17.3289 4.8574 17.2235C4.96281 17.1181 5.10577 17.0589 5.25484 17.0589H8.62722C8.77629 17.0589 8.91925 17.1181 9.02466 17.2235C9.13007 17.3289 9.18928 17.4719 9.18928 17.621C9.18928 17.77 9.13007 17.913 9.02466 18.0184C8.91925 18.1238 8.77629 18.183 8.62722 18.183H5.25484C5.10577 18.183 4.96281 18.1238 4.8574 18.0184C4.752 17.913 4.69278 17.77 4.69278 17.621ZM14.7548 7.08958C14.1319 6.91374 13.4753 6.89427 12.8431 7.03292C12.2109 7.17156 11.6226 7.46403 11.1305 7.8844C10.6384 8.30477 10.2575 8.84005 10.0218 9.44281C9.78601 10.0456 9.70258 10.6972 9.77889 11.3399C9.78801 11.4134 9.78251 11.488 9.76272 11.5593C9.74293 11.6307 9.70923 11.6974 9.66356 11.7557C9.61789 11.814 9.56115 11.8627 9.4966 11.899C9.43205 11.9353 9.36097 11.9585 9.28743 11.9673C9.21389 11.976 9.13935 11.9701 9.06809 11.95C8.99683 11.9298 8.93025 11.8958 8.87219 11.8498C8.81413 11.8038 8.76573 11.7468 8.72976 11.6821C8.6938 11.6173 8.67099 11.5461 8.66263 11.4725C8.53131 10.3664 8.76876 9.24789 9.33812 8.29051C9.90749 7.33313 10.7769 6.59045 11.8115 6.17771C12.8461 5.76497 13.988 5.70526 15.06 6.00784C16.1321 6.31042 17.0742 6.95837 17.7403 7.85115C18.4064 8.74392 18.7592 9.8316 18.744 10.9454C18.7288 12.0592 18.3463 13.1368 17.6561 14.011C16.9658 14.8852 16.0062 15.5072 14.9264 15.7803C13.8465 16.0535 12.7066 15.9625 11.6837 15.5216C11.6159 15.4925 11.5545 15.4502 11.5031 15.3973C11.4516 15.3444 11.4111 15.2818 11.3838 15.2133C11.3287 15.0747 11.3308 14.92 11.3898 14.7831C11.4487 14.6462 11.5596 14.5383 11.6982 14.4832C11.8367 14.428 11.9914 14.4302 12.1283 14.4891C12.6228 14.7022 13.1558 14.8115 13.6942 14.8102C14.2327 14.809 14.7651 14.6973 15.2587 14.4819C15.7522 14.2666 16.1962 13.9522 16.5633 13.5583C16.9305 13.1644 17.2128 12.6994 17.3929 12.1919C17.573 11.6845 17.6471 11.1455 17.6105 10.6083C17.5739 10.0711 17.4274 9.54711 17.1801 9.06881C16.9328 8.59051 16.5899 8.16806 16.1728 7.82762C15.7556 7.48717 15.273 7.23598 14.7548 7.08958Z" fill="current" stroke="current" stroke-width="0.5"/>
<path fill-rule="evenodd" clip-rule="evenodd" d="M16.9418 8.18206C16.8364 8.07666 16.7772 7.93372 16.7772 7.78468C16.7772 7.63565 16.8364 7.49271 16.9418 7.38731L21.1573 3.17184C21.2091 3.11815 21.2711 3.07533 21.3397 3.04588C21.4083 3.01642 21.482 3.00091 21.5567 3.00027C21.6313 2.99962 21.7053 3.01384 21.7744 3.0421C21.8435 3.07036 21.9062 3.1121 21.959 3.16487C22.0118 3.21764 22.0535 3.2804 22.0817 3.34947C22.11 3.41855 22.1242 3.49256 22.1236 3.56719C22.1229 3.64182 22.1074 3.71558 22.078 3.78415C22.0485 3.85272 22.0057 3.91474 21.952 3.96659L17.7365 8.18206C17.6311 8.28743 17.4882 8.34663 17.3392 8.34663C17.1901 8.34663 17.0472 8.28743 16.9418 8.18206Z" fill="current" stroke="current" stroke-width="0.5"/>
<path fill-rule="evenodd" clip-rule="evenodd" d="M21.5119 6.94175C21.4381 6.94079 21.3652 6.92531 21.2974 6.89618C21.2296 6.86705 21.1681 6.82484 21.1166 6.77197C21.0651 6.7191 21.0245 6.65659 20.9971 6.58803C20.9698 6.51947 20.9562 6.44619 20.9572 6.37238L20.9853 4.13874L18.7516 4.16684C18.6026 4.16878 18.4588 4.11142 18.3521 4.00738C18.2453 3.90335 18.1842 3.76115 18.1823 3.61209C18.1803 3.46302 18.2377 3.31929 18.3417 3.21251C18.4458 3.10573 18.588 3.04465 18.737 3.04272L22.124 3L22.0813 6.38699C22.0803 6.4608 22.0649 6.53371 22.0357 6.60153C22.0066 6.66936 21.9644 6.73079 21.9115 6.7823C21.8586 6.83382 21.7961 6.87441 21.7276 6.90177C21.659 6.92913 21.5857 6.94271 21.5119 6.94175Z" fill="current" stroke="current" stroke-width="0.5"/>
</svg>
