<svg width="current" height="current" viewBox="0 0 16 16" fill="none" xmlns="http://www.w3.org/2000/svg">
  <path fill-rule="evenodd" clip-rule="evenodd" d="M6.99183 1.49771C5.53484 1.49771 4.13753 2.07652 3.10728 3.10681C2.07703 4.13709 1.49825 5.53445 1.49825 6.99149C1.49825 8.44853 2.07703 9.8459 3.10728 10.8762C4.13753 11.9065 5.53484 12.4853 6.99183 12.4853C8.44881 12.4853 9.84613 11.9065 10.8764 10.8762C11.9066 9.8459 12.4854 8.44853 12.4854 6.99149C12.4854 5.53445 11.9066 4.13709 10.8764 3.10681C9.84613 2.07652 8.44881 1.49771 6.99183 1.49771ZM1.61406e-08 6.99149C9.43267e-05 5.87343 0.268299 4.77169 0.782115 3.77869C1.29593 2.7857 2.04038 1.9304 2.953 1.28455C3.86563 0.638703 4.91982 0.221134 6.02715 0.0668724C7.13448 -0.087389 8.26266 0.0261558 9.31704 0.397982C10.3714 0.769809 11.3213 1.38907 12.0869 2.20383C12.8525 3.01859 13.4116 4.00508 13.7173 5.08055C14.0229 6.15602 14.0662 7.28911 13.8436 8.38477C13.6209 9.48043 13.1387 10.5067 12.4375 11.3775L15.7616 14.7028C15.8352 14.7713 15.8942 14.8541 15.9352 14.9459C15.9761 15.0378 15.9981 15.137 15.9999 15.2376C16.0017 15.3382 15.9832 15.4381 15.9455 15.5314C15.9078 15.6247 15.8517 15.7094 15.7806 15.7806C15.7095 15.8517 15.6247 15.9078 15.5314 15.9455C15.4382 15.9832 15.3382 16.0017 15.2377 15.9999C15.1371 15.9981 15.0379 15.9761 14.946 15.9351C14.8541 15.8942 14.7714 15.8352 14.7028 15.7616L11.3777 12.4373C10.3504 13.2648 9.11009 13.7847 7.79989 13.9372C6.48969 14.0896 5.16309 13.8684 3.9733 13.2989C2.78352 12.7294 1.77909 11.835 1.07602 10.7189C0.372943 9.60279 -8.95933e-05 8.31058 1.61406e-08 6.99149Z" fill="current" />
</svg>