<svg width="current" height="current" viewBox="0 0 17 17" fill="none" xmlns="http://www.w3.org/2000/svg">
  <path d="M3.20784 8.53328C2.97451 8.53328 2.78851 8.44994 2.64984 8.28328C2.51118 8.11661 2.4694 7.92216 2.52451 7.69994C2.59118 7.42216 2.68007 7.1555 2.79118 6.89994C2.90229 6.64439 3.03007 6.39439 3.17451 6.14994C3.28562 5.96105 3.44962 5.8555 3.66651 5.83328C3.8834 5.81105 4.07495 5.87772 4.24118 6.03328C4.34118 6.13328 4.40229 6.25839 4.42451 6.40861C4.44673 6.55883 4.41895 6.69483 4.34118 6.81661C4.23007 7.0055 4.13295 7.20283 4.04984 7.40861C3.96673 7.61439 3.89718 7.82261 3.84118 8.03328C3.80784 8.17772 3.72718 8.29728 3.59918 8.39194C3.47118 8.48661 3.34073 8.53372 3.20784 8.53328ZM7.67451 14.3333C7.67451 14.5777 7.59118 14.7666 7.42451 14.8999C7.25784 15.0333 7.0634 15.0722 6.84118 15.0166C6.57451 14.9388 6.3134 14.8473 6.05784 14.7419C5.80229 14.6366 5.54673 14.5115 5.29118 14.3666C5.10229 14.2555 4.99673 14.0917 4.97451 13.8753C4.95229 13.6588 5.01895 13.4671 5.17451 13.2999C5.27451 13.1999 5.39962 13.1388 5.54984 13.1166C5.70007 13.0944 5.83607 13.1222 5.95784 13.1999C6.14673 13.3111 6.34407 13.4084 6.54984 13.4919C6.75562 13.5755 6.96384 13.6448 7.17451 13.6999C7.31895 13.7333 7.43851 13.8139 7.53318 13.9419C7.62784 14.0699 7.67495 14.2004 7.67451 14.3333ZM4.24118 12.3666C4.07451 12.5222 3.88295 12.5888 3.66651 12.5666C3.45007 12.5444 3.28607 12.4388 3.17451 12.2499C3.03007 11.9944 2.90518 11.7388 2.79984 11.4833C2.69451 11.2277 2.60273 10.9666 2.52451 10.6999C2.46895 10.4777 2.50784 10.2833 2.64118 10.1166C2.77451 9.94994 2.9634 9.86661 3.20784 9.86661C3.35229 9.86661 3.48562 9.91394 3.60784 10.0086C3.73007 10.1033 3.80784 10.2226 3.84118 10.3666C3.89673 10.5777 3.96607 10.7862 4.04918 10.9919C4.13229 11.1977 4.22962 11.3948 4.34118 11.5833C4.41895 11.7055 4.44673 11.8444 4.42451 11.9999C4.40229 12.1555 4.34118 12.2777 4.24118 12.3666ZM9.82451 14.9999C9.60229 15.0555 9.41073 15.0166 9.24984 14.8833C9.08895 14.7499 9.00829 14.5666 9.00784 14.3333C9.00784 14.1888 9.05518 14.0555 9.14984 13.9333C9.24451 13.8111 9.36384 13.7333 9.50784 13.6999C10.5301 13.4333 11.369 12.8859 12.0245 12.0579C12.6801 11.2299 13.0078 10.2773 13.0078 9.19994C13.0078 7.89994 12.5552 6.79728 11.6498 5.89194C10.7445 4.98661 9.64162 4.53372 8.34118 4.53328H8.20784L8.80784 5.13328C8.93007 5.2555 8.99118 5.41105 8.99118 5.59994C8.99118 5.78883 8.93007 5.94439 8.80784 6.06661C8.68562 6.18883 8.53007 6.24994 8.34118 6.24994C8.15229 6.24994 7.99673 6.18883 7.87451 6.06661L6.14118 4.33328C6.07451 4.26661 6.02718 4.19439 5.99918 4.11661C5.97118 4.03883 5.9574 3.9555 5.95784 3.86661C5.95829 3.77772 5.97229 3.69439 5.99984 3.61661C6.0274 3.53883 6.07451 3.46661 6.14118 3.39994L7.85784 1.66661C7.99118 1.54439 8.15229 1.48328 8.34118 1.48328C8.53007 1.48328 8.68562 1.54439 8.80784 1.66661C8.94118 1.79994 9.00784 1.96105 9.00784 2.14994C9.00784 2.33883 8.94673 2.49439 8.82451 2.61661L8.24118 3.19994H8.34118C10.0078 3.19994 11.4245 3.78328 12.5912 4.94994C13.7578 6.11661 14.3412 7.53328 14.3412 9.19994C14.3412 10.5777 13.919 11.7999 13.0745 12.8666C12.2301 13.9333 11.1467 14.6444 9.82451 14.9999Z" fill="current" />
</svg>