<svg width="current" height="current" viewBox="0 0 24 24" fill="none" xmlns="http://www.w3.org/2000/svg">
  <path fill-rule="evenodd" clip-rule="evenodd" d="M18.5 2.75C18.2702 2.75 18.0426 2.79527 17.8303 2.88321C17.618 2.97116 17.4251 3.10006 17.2626 3.26256C17.1001 3.42507 16.9712 3.61798 16.8832 3.8303C16.7953 4.04262 16.75 4.27019 16.75 4.5C16.75 4.72981 16.7953 4.95738 16.8832 5.1697C16.9712 5.38202 17.1001 5.57493 17.2626 5.73744C17.4251 5.89994 17.618 6.02884 17.8303 6.11679C18.0426 6.20474 18.2702 6.25 18.5 6.25C18.9641 6.25 19.4092 6.06563 19.7374 5.73744C20.0656 5.40925 20.25 4.96413 20.25 4.5C20.25 4.03587 20.0656 3.59075 19.7374 3.26256C19.4092 2.93437 18.9641 2.75 18.5 2.75ZM15.25 4.5C15.25 3.63805 15.5924 2.8114 16.2019 2.2019C16.8114 1.59241 17.638 1.25 18.5 1.25C19.362 1.25 20.1886 1.59241 20.7981 2.2019C21.4076 2.8114 21.75 3.63805 21.75 4.5C21.75 5.36195 21.4076 6.1886 20.7981 6.7981C20.1886 7.40759 19.362 7.75 18.5 7.75C17.638 7.75 16.8114 7.40759 16.2019 6.7981C15.5924 6.1886 15.25 5.36195 15.25 4.5ZM10.052 5.93C10.2905 5.89395 10.5319 5.87956 10.773 5.887C10.853 5.891 10.944 5.89767 11.046 5.907C13.429 6.155 15.196 7.943 16.374 9.709L16.437 9.803C16.7338 10.2481 17.1359 10.6131 17.6076 10.8655C18.0793 11.1179 18.606 11.25 19.141 11.25H21C21.1989 11.25 21.3897 11.329 21.5303 11.4697C21.671 11.6103 21.75 11.8011 21.75 12C21.75 12.1989 21.671 12.3897 21.5303 12.5303C21.3897 12.671 21.1989 12.75 21 12.75H19.14C18.3581 12.75 17.5882 12.5569 16.8988 12.188C16.2094 11.819 15.6218 11.2856 15.188 10.635L15.126 10.541C14.8593 10.1382 14.5663 9.75332 14.249 9.389L12.365 11.744C11.937 12.278 11.651 12.638 11.458 12.934C11.27 13.22 11.217 13.379 11.203 13.5C11.179 13.7 11.205 13.903 11.276 14.091C11.32 14.205 11.411 14.347 11.662 14.578C11.922 14.818 12.288 15.096 12.834 15.508L12.929 15.581C13.649 16.127 14.149 16.505 14.494 17.009C14.691 17.296 14.846 17.609 14.957 17.939C15.15 18.519 15.15 19.145 15.15 20.049V22C15.15 22.1989 15.071 22.3897 14.9303 22.5303C14.7897 22.671 14.5989 22.75 14.4 22.75C14.2011 22.75 14.0103 22.671 13.8697 22.5303C13.729 22.3897 13.65 22.1989 13.65 22V20.17C13.65 19.1 13.64 18.735 13.534 18.415C13.4674 18.2173 13.3742 18.0296 13.257 17.857C13.067 17.579 12.781 17.352 11.927 16.705L11.899 16.684C11.389 16.298 10.966 15.977 10.647 15.683C10.313 15.376 10.036 15.048 9.875 14.627C9.71706 14.213 9.66149 13.7671 9.713 13.327C9.765 12.879 9.954 12.492 10.203 12.113C10.44 11.751 10.773 11.335 11.171 10.836L13.155 8.357C12.468 7.834 11.711 7.486 10.891 7.401C10.8298 7.39445 10.7685 7.38978 10.707 7.387C10.5564 7.38342 10.4058 7.39346 10.257 7.417C9.192 7.565 8.125 8.157 5.807 9.474L4.371 10.289C4.19808 10.3874 3.99315 10.4131 3.8013 10.3604C3.60945 10.3077 3.4464 10.1809 3.348 10.008C3.2496 9.83508 3.22393 9.63015 3.27663 9.4383C3.32933 9.24645 3.45608 9.0834 3.629 8.985L5.065 8.17L5.217 8.083C7.337 6.879 8.666 6.123 10.052 5.932M9.48 16.425C9.63271 16.5523 9.72861 16.7351 9.74662 16.9331C9.76462 17.1311 9.70325 17.3282 9.576 17.481L8.576 18.682L8.479 18.798C7.837 19.569 7.366 20.136 6.708 20.444C6.05 20.752 5.313 20.752 4.308 20.751H3C2.80109 20.751 2.61032 20.672 2.46967 20.5313C2.32902 20.3907 2.25 20.1999 2.25 20.001C2.25 19.8021 2.32902 19.6113 2.46967 19.4707C2.61032 19.33 2.80109 19.251 3 19.251H4.158C5.38 19.251 5.754 19.234 6.071 19.086C6.389 18.937 6.641 18.66 7.423 17.722L8.423 16.521C8.48606 16.4452 8.56344 16.3827 8.65071 16.3368C8.73798 16.291 8.83343 16.2628 8.9316 16.2539C9.02977 16.245 9.12873 16.2555 9.22283 16.2849C9.31693 16.3142 9.40432 16.3618 9.48 16.425Z" fill="current" />
  <path d="M10.052 5.93C10.2905 5.89395 10.5319 5.87956 10.773 5.887C10.853 5.891 10.944 5.89767 11.046 5.907C13.429 6.155 15.196 7.943 16.374 9.709L16.437 9.803C16.7338 10.2481 17.1359 10.6131 17.6076 10.8655C18.0793 11.1179 18.606 11.25 19.141 11.25H21C21.1989 11.25 21.3897 11.329 21.5303 11.4697C21.671 11.6103 21.75 11.8011 21.75 12C21.75 12.1989 21.671 12.3897 21.5303 12.5303C21.3897 12.671 21.1989 12.75 21 12.75H19.14C18.3581 12.75 17.5882 12.5569 16.8988 12.188C16.2094 11.819 15.6218 11.2856 15.188 10.635L15.126 10.541C14.8593 10.1382 14.5663 9.75332 14.249 9.389L12.365 11.744C11.937 12.278 11.651 12.638 11.458 12.934C11.27 13.22 11.217 13.379 11.203 13.5C11.179 13.7 11.205 13.903 11.276 14.091C11.32 14.205 11.411 14.347 11.662 14.578C11.922 14.818 12.288 15.096 12.834 15.508L12.929 15.581C13.649 16.127 14.149 16.505 14.494 17.009C14.691 17.296 14.846 17.609 14.957 17.939C15.15 18.519 15.15 19.145 15.15 20.049V22C15.15 22.1989 15.071 22.3897 14.9303 22.5303C14.7897 22.671 14.5989 22.75 14.4 22.75C14.2011 22.75 14.0103 22.671 13.8697 22.5303C13.729 22.3897 13.65 22.1989 13.65 22V20.17C13.65 19.1 13.64 18.735 13.534 18.415C13.4674 18.2173 13.3742 18.0296 13.257 17.857C13.067 17.579 12.781 17.352 11.927 16.705L11.899 16.684C11.389 16.298 10.966 15.977 10.647 15.683C10.313 15.376 10.036 15.048 9.875 14.627C9.71706 14.213 9.66149 13.7671 9.713 13.327C9.765 12.879 9.954 12.492 10.203 12.113C10.44 11.751 10.773 11.335 11.171 10.836L13.155 8.357C12.468 7.834 11.711 7.486 10.891 7.401C10.8298 7.39445 10.7685 7.38978 10.707 7.387C10.5564 7.38342 10.4058 7.39346 10.257 7.417C9.192 7.565 8.125 8.157 5.807 9.474L4.371 10.289C4.19808 10.3874 3.99315 10.4131 3.8013 10.3604C3.60945 10.3077 3.4464 10.1809 3.348 10.008C3.2496 9.83508 3.22393 9.63015 3.27663 9.4383C3.32933 9.24645 3.45608 9.08339 3.629 8.985L5.065 8.17L5.217 8.083C7.337 6.879 8.666 6.123 10.052 5.932M18.5 2.75C18.2702 2.75 18.0426 2.79527 17.8303 2.88321C17.618 2.97116 17.4251 3.10006 17.2626 3.26256C17.1001 3.42507 16.9712 3.61798 16.8832 3.8303C16.7953 4.04262 16.75 4.27019 16.75 4.5C16.75 4.72981 16.7953 4.95738 16.8832 5.1697C16.9712 5.38202 17.1001 5.57493 17.2626 5.73744C17.4251 5.89994 17.618 6.02884 17.8303 6.11679C18.0426 6.20474 18.2702 6.25 18.5 6.25C18.9641 6.25 19.4092 6.06563 19.7374 5.73744C20.0656 5.40925 20.25 4.96413 20.25 4.5C20.25 4.03587 20.0656 3.59075 19.7374 3.26256C19.4092 2.93437 18.9641 2.75 18.5 2.75ZM15.25 4.5C15.25 3.63805 15.5924 2.8114 16.2019 2.2019C16.8114 1.59241 17.638 1.25 18.5 1.25C19.362 1.25 20.1886 1.59241 20.7981 2.2019C21.4076 2.8114 21.75 3.63805 21.75 4.5C21.75 5.36195 21.4076 6.1886 20.7981 6.7981C20.1886 7.40759 19.362 7.75 18.5 7.75C17.638 7.75 16.8114 7.40759 16.2019 6.7981C15.5924 6.1886 15.25 5.36195 15.25 4.5ZM9.48 16.425C9.63271 16.5523 9.72861 16.7351 9.74662 16.9331C9.76462 17.1311 9.70325 17.3282 9.576 17.481L8.576 18.682L8.479 18.798C7.837 19.569 7.366 20.136 6.708 20.444C6.05 20.752 5.313 20.752 4.308 20.751H3C2.80109 20.751 2.61032 20.672 2.46967 20.5313C2.32902 20.3907 2.25 20.1999 2.25 20.001C2.25 19.8021 2.32902 19.6113 2.46967 19.4707C2.61032 19.33 2.80109 19.251 3 19.251H4.158C5.38 19.251 5.754 19.234 6.071 19.086C6.389 18.937 6.641 18.66 7.423 17.722L8.423 16.521C8.48606 16.4452 8.56344 16.3827 8.65071 16.3368C8.73798 16.291 8.83343 16.2628 8.9316 16.2539C9.02977 16.245 9.12873 16.2555 9.22283 16.2849C9.31693 16.3142 9.40432 16.3618 9.48 16.425Z" stroke="current" stroke-width="0.5" />
</svg>