<svg width="current" height="current" viewBox="0 0 48 48" fill="none" xmlns="http://www.w3.org/2000/svg">
<path fill-rule="evenodd" clip-rule="evenodd" d="M16.795 31.1068C17.2883 30.4412 18.2277 30.3016 18.8933 30.7949C20.3493 31.874 22.1092 32.5 24.0001 32.5C25.891 32.5 27.6509 31.874 29.1069 30.7949C29.7725 30.3016 30.7119 30.4412 31.2052 31.1068C31.6985 31.7723 31.5588 32.7118 30.8933 33.2051C28.9493 34.6459 26.5692 35.5 24.0001 35.5C21.431 35.5 19.0509 34.6459 17.1069 33.2051C16.4414 32.7118 16.3017 31.7723 16.795 31.1068Z" fill="current"/>
<path d="M32 21C32 22.656 31.104 24 30 24C28.896 24 28 22.656 28 21C28 19.344 28.896 18 30 18C31.104 18 32 19.344 32 21Z" fill="current"/>
<path d="M18 24C19.1046 24 20 22.6569 20 21C20 19.3431 19.1046 18 18 18C16.8954 18 16 19.3431 16 21C16 22.6569 16.8954 24 18 24Z" fill="current"/>
<path fill-rule="evenodd" clip-rule="evenodd" d="M23.9975 5.50003C20.7511 5.49467 17.5611 6.34832 14.7513 7.97432C14.0343 8.38925 13.1166 8.14435 12.7017 7.42732C12.2868 6.7103 12.5317 5.79267 13.2487 5.37774C16.5163 3.48684 20.226 2.49402 24.0012 2.50003C24.0016 2.50003 24.0021 2.50003 24.0025 2.50003L24 4.00003V2.50003C24.0004 2.50003 24.0008 2.50003 24.0012 2.50003C35.8751 2.5007 45.5 12.126 45.5 24C45.5 35.8745 35.8744 45.5 24 45.5C12.1256 45.5 2.5 35.8745 2.5 24C2.5 20.0875 3.54698 16.4111 5.37784 13.2485C5.79289 12.5316 6.71057 12.2868 7.42752 12.7019C8.14447 13.1169 8.38921 14.0346 7.97416 14.7515C6.40103 17.4689 5.5 20.6285 5.5 24C5.5 34.2176 13.7824 42.5 24 42.5C34.2176 42.5 42.5 34.2176 42.5 24C42.5 13.7825 34.2176 5.50003 24 5.50003L23.9975 5.50003Z" fill="current"/>
</svg>
