<svg width="current" height="current" viewBox="0 0 12 12" fill="none" xmlns="http://www.w3.org/2000/svg">
  <path d="M4.29184 2.04481C5.05202 0.681604 5.43181 0 6 0C6.56819 0 6.94798 0.681604 7.70816 2.04481L7.90495 2.39762C8.12095 2.78522 8.22895 2.97902 8.39694 3.10682C8.56494 3.23462 8.77493 3.28202 9.19492 3.37682L9.57652 3.46322C11.0525 3.79742 11.7899 3.96423 11.9657 4.52883C12.1409 5.09283 11.6381 5.68144 10.6319 6.85804L10.3715 7.16225C10.0859 7.49645 9.94251 7.66385 9.87831 7.87025C9.81411 8.07725 9.83571 8.30045 9.87891 8.74626L9.91851 9.15246C10.0703 10.7227 10.1465 11.5075 9.68691 11.8561C9.22732 12.2047 8.53614 11.8867 7.15497 11.2507L6.79678 11.0863C6.40439 10.9051 6.20819 10.8151 6 10.8151C5.7918 10.8151 5.59561 10.9051 5.20322 11.0863L4.84563 11.2507C3.46386 11.8867 2.77268 12.2047 2.31369 11.8567C1.8535 11.5075 1.9297 10.7227 2.08149 9.15246L2.12109 8.74686C2.16429 8.30045 2.18589 8.07725 2.12109 7.87085C2.05749 7.66385 1.9141 7.49645 1.6285 7.16285L1.36811 6.85804C0.361933 5.68204 -0.140856 5.09343 0.0343402 4.52883C0.209536 3.96423 0.948119 3.79682 2.42408 3.46322L2.80567 3.37682C3.22506 3.28202 3.43446 3.23462 3.60306 3.10682C3.77165 2.97902 3.87905 2.78522 4.09504 2.39762L4.29184 2.04481Z" fill="current" />
</svg>