<svg width="current" height="current" viewBox="0 0 16 16" fill="none" xmlns="http://www.w3.org/2000/svg">
  <path d="M4.46562 4.46564C3.91875 5.01251 3.525 5.65313 3.28437 6.33438C3.1 6.85626 2.52813 7.12813 2.00938 6.94376C1.49063 6.75939 1.21562 6.18751 1.4 5.66876C1.7375 4.70938 2.2875 3.81251 3.05 3.05001C5.775 0.32501 10.1844 0.315635 12.9187 3.01876L14.2188 1.71876C14.4344 1.50314 14.7563 1.44064 15.0375 1.55626C15.3188 1.67189 15.5 1.94689 15.5 2.25001V6.25001C15.5 6.66564 15.1656 7.00001 14.75 7.00001H10.75C10.4469 7.00001 10.1719 6.81876 10.0562 6.53751C9.94062 6.25626 10.0031 5.93438 10.2188 5.71876L11.5031 4.43439C9.54688 2.51251 6.40625 2.52189 4.4625 4.46564H4.46562ZM0.5 9.75001C0.5 9.33439 0.834375 9.00001 1.25 9.00001H5.25C5.55312 9.00001 5.82812 9.18126 5.94375 9.46251C6.05937 9.74376 5.99687 10.0656 5.78125 10.2813L4.49687 11.5656C6.45312 13.4875 9.59375 13.4781 11.5375 11.5344C12.0844 10.9875 12.4781 10.3469 12.7188 9.66564C12.9031 9.14376 13.475 8.87189 13.9937 9.05626C14.5125 9.24063 14.7875 9.81251 14.6031 10.3313C14.2656 11.2875 13.7156 12.1844 12.95 12.95C10.225 15.675 5.81563 15.6844 3.08125 12.9813L1.78125 14.2813C1.56562 14.4969 1.24375 14.5594 0.9625 14.4438C0.68125 14.3281 0.5 14.0531 0.5 13.75V9.75314V9.75001Z" fill="current" />
</svg>