<svg width="current" height="current" viewBox="0 0 24 24" fill="none" xmlns="http://www.w3.org/2000/svg">
<path fill-rule="evenodd" clip-rule="evenodd" d="M9 6C8.46957 6 7.96086 6.21071 7.58579 6.58579C7.21071 6.96086 7 7.46957 7 8C7 8.53043 7.21071 9.03914 7.58579 9.41421C7.96086 9.78929 8.46957 10 9 10C9.53043 10 10.0391 9.78929 10.4142 9.41421C10.7893 9.03914 11 8.53043 11 8C11 7.46957 10.7893 6.96086 10.4142 6.58579C10.0391 6.21071 9.53043 6 9 6ZM6.17157 5.17157C6.92172 4.42143 7.93913 4 9 4C10.0609 4 11.0783 4.42143 11.8284 5.17157C12.5786 5.92172 13 6.93913 13 8C13 9.06087 12.5786 10.0783 11.8284 10.8284C11.0783 11.5786 10.0609 12 9 12C7.93913 12 6.92172 11.5786 6.17157 10.8284C5.42143 10.0783 5 9.06087 5 8C5 6.93913 5.42143 5.92172 6.17157 5.17157ZM7 15C6.46957 15 5.96086 15.2107 5.58579 15.5858C5.21071 15.9609 5 16.4696 5 17V18H13V17C13 16.4696 12.7893 15.9609 12.4142 15.5858C12.0391 15.2107 11.5304 15 11 15H7ZM4.17157 14.1716C4.92172 13.4214 5.93913 13 7 13H11C12.0609 13 13.0783 13.4214 13.8284 14.1716C14.5786 14.9217 15 15.9391 15 17V18C15 18.5304 14.7893 19.0391 14.4142 19.4142C14.0391 19.7893 13.5304 20 13 20H5C4.46957 20 3.96086 19.7893 3.58579 19.4142C3.21071 19.0391 3 18.5304 3 18V17C3 15.9391 3.42143 14.9217 4.17157 14.1716Z" fill="current"/>
<path d="M21.3846 8.91114C21.5065 8.9619 21.6171 9.0363 21.71 9.13003C21.8058 9.22613 21.8811 9.34073 21.9312 9.46685C21.9813 9.59297 22.0052 9.72796 22.0014 9.86362C21.9977 9.99927 21.9664 10.1327 21.9094 10.2559C21.8524 10.3791 21.771 10.4893 21.67 10.58L19 13.25C18.8127 13.4363 18.5592 13.5408 18.295 13.5408C18.0308 13.5408 17.7774 13.4363 17.59 13.25L16.25 11.91C16.0638 11.7227 15.9592 11.4692 15.9592 11.205C15.9592 10.9408 16.0638 10.6874 16.25 10.5C16.343 10.4063 16.4536 10.3319 16.5754 10.2811C16.6973 10.2304 16.828 10.2042 16.96 10.2042C17.092 10.2042 17.2227 10.2304 17.3446 10.2811C17.4665 10.3319 17.5771 10.4063 17.67 10.5L18.29 11.13L20.29 9.13003C20.383 9.0363 20.4936 8.9619 20.6154 8.91114C20.7373 8.86037 20.868 8.83423 21 8.83423C21.132 8.83423 21.2627 8.86037 21.3846 8.91114Z" fill="current"/>
</svg>
