<svg width="current" height="current" viewBox="0 0 48 48" fill="none" xmlns="http://www.w3.org/2000/svg">
<path d="M24 36C25.1046 36 26 34.6569 26 33C26 31.3431 25.1046 30 24 30C22.8954 30 22 31.3431 22 33C22 34.6569 22.8954 36 24 36Z" fill="current"/>
<path fill-rule="evenodd" clip-rule="evenodd" d="M23.9975 5.50003C20.7511 5.49467 17.5611 6.34832 14.7513 7.97432C14.0343 8.38925 13.1166 8.14435 12.7017 7.42732C12.2868 6.7103 12.5317 5.79267 13.2487 5.37774C16.5163 3.48684 20.226 2.49402 24.0012 2.50003C24.0016 2.50003 24.0021 2.50003 24.0025 2.50003L24 4.00003V2.50003C24.0004 2.50003 24.0008 2.50003 24.0012 2.50003C35.8751 2.5007 45.5 12.126 45.5 24C45.5 35.8745 35.8744 45.5 24 45.5C12.1256 45.5 2.5 35.8745 2.5 24C2.5 20.0875 3.54698 16.4111 5.37784 13.2485C5.79289 12.5316 6.71057 12.2868 7.42752 12.7019C8.14447 13.1169 8.38921 14.0346 7.97416 14.7515C6.40103 17.4689 5.5 20.6285 5.5 24C5.5 34.2176 13.7824 42.5 24 42.5C34.2176 42.5 42.5 34.2176 42.5 24C42.5 13.7825 34.2176 5.50003 24 5.50003L23.9975 5.50003Z" fill="current"/>
<path fill-rule="evenodd" clip-rule="evenodd" d="M20.4747 16.9393C21.0605 17.5251 21.0605 18.4749 20.4747 19.0607L15.0607 24.4747C14.4749 25.0605 13.5251 25.0605 12.9394 24.4747C12.3536 23.8889 12.3536 22.9392 12.9394 22.3534L18.3534 16.9393C18.9392 16.3536 19.889 16.3536 20.4747 16.9393Z" fill="current"/>
<path fill-rule="evenodd" clip-rule="evenodd" d="M34.4747 16.9393C35.0605 17.5251 35.0605 18.4749 34.4747 19.0607L29.0607 24.4747C28.4749 25.0605 27.5251 25.0605 26.9394 24.4747C26.3536 23.8889 26.3536 22.9392 26.9394 22.3534L32.3534 16.9393C32.9392 16.3536 33.889 16.3536 34.4747 16.9393Z" fill="current"/>
<path fill-rule="evenodd" clip-rule="evenodd" d="M20.4747 24.4747C19.8889 25.0605 18.9392 25.0605 18.3534 24.4747L12.9393 19.0607C12.3536 18.4749 12.3536 17.5251 12.9393 16.9394C13.5251 16.3536 14.4749 16.3536 15.0607 16.9394L20.4747 22.3534C21.0605 22.9392 21.0605 23.889 20.4747 24.4747Z" fill="current"/>
<path fill-rule="evenodd" clip-rule="evenodd" d="M34.4747 24.4747C33.8889 25.0605 32.9392 25.0605 32.3534 24.4747L26.9393 19.0607C26.3536 18.4749 26.3536 17.5251 26.9393 16.9394C27.5251 16.3536 28.4749 16.3536 29.0607 16.9394L34.4747 22.3534C35.0605 22.9392 35.0605 23.889 34.4747 24.4747Z" fill="current"/>
</svg>
