<svg width="current" height="current" viewBox="0 0 13 13" fill="none" xmlns="http://www.w3.org/2000/svg">
<path d="M2.17849 2.97108C2.07943 2.86478 2.0255 2.72417 2.02806 2.57888C2.03063 2.4336 2.08948 2.29498 2.19223 2.19223C2.29498 2.08948 2.4336 2.03063 2.57888 2.02806C2.72417 2.0255 2.86478 2.07943 2.97108 2.17849L6.50037 5.70628L10.0289 2.17849C10.0803 2.12339 10.1422 2.0792 10.211 2.04855C10.2797 2.0179 10.354 2.00142 10.4293 2.00009C10.5046 1.99876 10.5794 2.01261 10.6492 2.04082C10.7191 2.06902 10.7825 2.111 10.8357 2.16425C10.889 2.21751 10.931 2.28094 10.9592 2.35077C10.9874 2.4206 11.0012 2.49539 10.9999 2.57069C10.9986 2.64599 10.9821 2.72025 10.9515 2.78904C10.9208 2.85783 10.8766 2.91974 10.8215 2.97108L7.29297 6.50037L10.8208 10.0289C10.8759 10.0803 10.9201 10.1422 10.9507 10.211C10.9814 10.2797 10.9978 10.354 10.9992 10.4293C11.0005 10.5046 10.9866 10.5794 10.9584 10.6492C10.9302 10.7191 10.8883 10.7825 10.835 10.8357C10.7817 10.889 10.7183 10.931 10.6485 10.9592C10.5787 10.9874 10.5039 11.0012 10.4286 10.9999C10.3533 10.9986 10.279 10.9821 10.2102 10.9515C10.1414 10.9208 10.0795 10.8766 10.0282 10.8215L6.49963 7.29372L2.97108 10.8215C2.91974 10.8766 2.85783 10.9208 2.78904 10.9515C2.72025 10.9821 2.64599 10.9986 2.57069 10.9999C2.49539 11.0012 2.4206 10.9874 2.35077 10.9592C2.28094 10.931 2.21751 10.889 2.16425 10.8357C2.111 10.7825 2.06902 10.7191 2.04082 10.6492C2.01261 10.5794 1.99876 10.5046 2.00009 10.4293C2.00142 10.354 2.0179 10.2797 2.04855 10.211C2.0792 10.1422 2.12339 10.0803 2.17849 10.0289L5.70628 6.50037L2.17849 2.97108Z" fill="current"/>
</svg>
