<svg width="current" height="current" viewBox="0 0 16 16" fill="none" xmlns="http://www.w3.org/2000/svg">
  <path d="M6.66665 9.99998L10.1266 7.99998L6.66665 5.99998V9.99998ZM14.3733 4.77998C14.46 5.09331 14.52 5.51331 14.56 6.04665C14.6066 6.57998 14.6266 7.03998 14.6266 7.43998L14.6666 7.99998C14.6666 9.45998 14.56 10.5333 14.3733 11.22C14.2066 11.82 13.82 12.2066 13.22 12.3733C12.9066 12.46 12.3333 12.52 11.4533 12.56C10.5866 12.6066 9.79331 12.6266 9.05998 12.6266L7.99998 12.6666C5.20665 12.6666 3.46665 12.56 2.77998 12.3733C2.17998 12.2066 1.79331 11.82 1.62665 11.22C1.53998 10.9066 1.47998 10.4866 1.43998 9.95331C1.39331 9.41998 1.37331 8.95998 1.37331 8.55998L1.33331 7.99998C1.33331 6.53998 1.43998 5.46665 1.62665 4.77998C1.79331 4.17998 2.17998 3.79331 2.77998 3.62665C3.09331 3.53998 3.66665 3.47998 4.54665 3.43998C5.41331 3.39331 6.20665 3.37331 6.93998 3.37331L7.99998 3.33331C10.7933 3.33331 12.5333 3.43998 13.22 3.62665C13.82 3.79331 14.2066 4.17998 14.3733 4.77998Z" fill="current" />
</svg>