<svg width="current" height="current" viewBox="0 0 130 40" fill="none" xmlns="http://www.w3.org/2000/svg">
<path d="M31.6074 11.7924L19.3115 4.7103C18.7392 4.38252 18.1041 4.2168 17.4653 4.2168L17.4653 12.4479C17.4653 12.4479 17.4653 12.4516 17.4653 12.4553C17.4653 13.8769 16.3059 15.0296 14.8843 15.0296C14.4042 15.0296 13.9611 14.897 13.5734 14.6687L13.5661 14.6687L10.7303 13.0372C10.2022 12.7315 9.52282 12.912 9.21634 13.4423C8.90987 13.9689 9.0908 14.6466 9.62251 14.9522L11.1327 15.8214C11.2472 15.8656 11.358 15.9208 11.4687 15.9834L24.2594 23.3491C25.4964 24.0599 25.921 25.6361 25.2047 26.8699C24.492 28.1036 22.9117 28.5271 21.6747 27.8127L19.1454 26.358L19.1417 26.358C18.9755 26.2585 18.7798 26.1959 18.5693 26.1959C17.9601 26.1959 17.4653 26.6894 17.4653 27.2971L17.4653 39.896C18.1041 39.896 18.7392 39.7303 19.3115 39.4025L31.6074 32.3205C32.7484 31.6612 33.4536 30.4459 33.4536 29.1311L33.4536 14.9707C33.4536 13.6559 32.7484 12.4406 31.6074 11.7813L31.6074 11.7924Z" fill="#2AC4B5"/>
<path d="M23.5209 24.6308L22.0107 23.7616C21.8963 23.7174 21.7855 23.6622 21.6747 23.5996L8.88405 16.2339C7.64707 15.5231 7.22244 13.9469 7.93878 12.7131C8.65142 11.4794 10.2318 11.0558 11.4688 11.7703L14.3156 13.4092L14.323 13.4092C14.4892 13.5049 14.6775 13.5639 14.8843 13.5639C15.4935 13.5639 15.9883 13.0704 15.9883 12.4627L15.9883 -1.08699e-07C15.3495 -1.04356e-07 14.7144 0.165727 14.1421 0.493499L1.84623 7.57189C0.705259 8.23112 6.42231e-08 9.44645 7.31618e-08 10.7612L1.69434e-07 24.9217C1.78373e-07 26.2365 0.705259 27.4518 1.84623 28.111L14.1421 35.1931C14.7144 35.5209 15.3495 35.6866 15.9883 35.6866L15.9883 27.3192C15.9883 27.3192 15.9883 27.3082 15.9883 27.3045C15.9883 25.8829 17.1478 24.7302 18.5694 24.7302C19.0235 24.7302 19.4518 24.848 19.8248 25.058L22.4095 26.5458C22.9375 26.8515 23.6169 26.671 23.9234 26.1407C24.2299 25.6141 24.049 24.9364 23.5172 24.6308L23.5209 24.6308Z" fill="#91E12E"/>
<path d="M126.23 8.78394H129.494V21.1199H126.23V8.78394ZM111.734 21.9599H129.494V30.1199H111.734V21.9599ZM126.23 27.5279V24.5519H114.998V27.5279H126.23ZM110.174 13.3679H119.606V11.5679H110.174V9.02394H122.87V15.8399H113.438V17.8559H124.79V20.3999H110.174V13.3679Z" fill="#31333D"/>
<path d="M87.3694 26.4H108.729V29.16H87.3694V26.4ZM89.1694 9.23999H107.049V11.976H92.4334V19.488H107.409V22.224H89.1694V9.23999Z" fill="#31333D"/>
<path d="M65.0447 18.5999H74.2607V16.9439H66.6047V8.87988H84.9647V11.4719H69.8687V14.3519H85.3247V16.9439H77.6687V18.5999H86.4047V21.1679H65.0447V18.5999ZM80.3087 22.4399C81.8767 22.4399 83.1007 22.7919 83.9807 23.4959C84.8767 24.1839 85.3247 25.1279 85.3247 26.3279C85.3247 27.5279 84.8767 28.4719 83.9807 29.1599C83.1007 29.8639 81.8767 30.2159 80.3087 30.2159H71.1407C69.5727 30.2159 68.3407 29.8639 67.4447 29.1599C66.5647 28.4719 66.1247 27.5279 66.1247 26.3279C66.1247 25.1279 66.5647 24.1839 67.4447 23.4959C68.3407 22.7919 69.5727 22.4399 71.1407 22.4399H80.3087ZM80.0927 27.6239C80.7007 27.6239 81.1807 27.4959 81.5327 27.2399C81.8847 26.9999 82.0607 26.6959 82.0607 26.3279C82.0607 25.9599 81.8847 25.6559 81.5327 25.4159C81.1807 25.1599 80.7007 25.0319 80.0927 25.0319H71.3567C70.7487 25.0319 70.2687 25.1599 69.9167 25.4159C69.5647 25.6559 69.3887 25.9599 69.3887 26.3279C69.3887 26.6959 69.5647 26.9999 69.9167 27.2399C70.2687 27.4959 70.7487 27.6239 71.3567 27.6239H80.0927Z" fill="#31333D"/>
<path d="M49.68 18.2399C48.768 18.2399 47.944 18.1279 47.208 17.9039C46.488 17.6799 45.872 17.3599 45.36 16.9439C44.864 16.5279 44.48 16.0319 44.208 15.4559C43.936 14.8639 43.8 14.2159 43.8 13.5119C43.8 12.8079 43.936 12.1679 44.208 11.5919C44.48 10.9999 44.864 10.4959 45.36 10.0799C45.872 9.66394 46.488 9.34394 47.208 9.11994C47.944 8.89594 48.768 8.78394 49.68 8.78394H57.12C58.032 8.78394 58.848 8.89594 59.568 9.11994C60.304 9.34394 60.92 9.66394 61.416 10.0799C61.928 10.4959 62.32 10.9999 62.592 11.5919C62.864 12.1679 63 12.8079 63 13.5119C63 14.2159 62.864 14.8639 62.592 15.4559C62.32 16.0319 61.928 16.5279 61.416 16.9439C60.92 17.3599 60.304 17.6799 59.568 17.9039C58.848 18.1279 58.032 18.2399 57.12 18.2399H49.68ZM42.72 19.7039H64.08V22.2719H55.584V25.6799H52.176V22.2719H42.72V19.7039ZM44.28 23.8799H47.544V27.4319H62.76V30.1199H44.28V23.8799ZM57.024 15.6479C57.856 15.6479 58.512 15.4479 58.992 15.0479C59.488 14.6479 59.736 14.1359 59.736 13.5119C59.736 12.8879 59.488 12.3759 58.992 11.9759C58.512 11.5759 57.856 11.3759 57.024 11.3759H49.776C48.944 11.3759 48.28 11.5759 47.784 11.9759C47.304 12.3759 47.064 12.8879 47.064 13.5119C47.064 14.1359 47.304 14.6479 47.784 15.0479C48.28 15.4479 48.944 15.6479 49.776 15.6479H57.024Z" fill="#31333D"/>
</svg>
